<svg xmlns="http://www.w3.org/2000/svg" xmlns:xlink="http://www.w3.org/1999/xlink" xmlns:ev="http://www.w3.org/2001/xml-events" width="200" height="200" viewBox="0 0 106 106" xml:space="preserve" color-interpolation-filters="sRGB" class="">
        <style type="text/css">.font_component_wrapper{fill:#ef454a;stroke:none;stroke-width:2.0}</style>
<g class="font_component_wrapper"><g transform="
                                translate(69.666666666667,3)scale(0.033333333333333,-0.017265193370166)
                                translate(0,-1160)
                        "><path style="fill: #EF454A;" d=" M 829.9 276.2 T 856.8 263.04 T 904.17 235.23 T 927.94 197.63 Q 927.52 182.51 916.96 177.27 T 885.15 167.51 Q 873.24 166.6 859.26 171.43 Q 762.08 192.77 641.35 192.45 Q 575.01 193.01 503.96 185.29 Q 399.74 176.62 267.1 148.75 Q 255.59 148.77 241 140.52 Q 214.39 126.45 193.21 129.08 Q 169.14 127.49 138.46 143.4 T 94.21 178.15 T 75.19 219.33 Q 73.81 222.23 77.86 224.75 T 82.42 225.06 Q 87.92 225.99 95.31 219.51 T 109.1 213.61 Q 133.48 203.59 164.8 204.91 Q 181.67 203.67 346.97 222.29 L 456.76 234.26 Q 467.8 361.83 468.46 424.73 Q 469.99 439.87 467.33 450.23 Q 460.17 475.8 440.5 495.44 L 343.88 478.74 Q 322.58 476.34 306.92 474.35 Q 294.72 475.35 286.51 477.73 T 269.46 484.92 T 260.75 490.74 Q 242.62 491.42 226.85 503.34 T 205.64 525.14 Q 200.88 534.71 200.8 543.71 Q 200.25 550.28 210.07 549.22 Q 226.52 545.47 241.74 541.71 Q 247.11 543.8 269.23 542.59 Q 317.58 541.23 363.28 548.28 Q 395 547.48 493.61 562.09 T 625.51 588.91 Q 643.98 593.14 662.86 594.96 Q 687.94 594.04 710.82 580.49 Q 728.09 579.86 741.53 574.62 T 760.08 556.07 T 766.14 540.94 Q 762.41 535.72 756.31 530.71 T 735.6 530.03 Q 707.98 527.46 674.27 524.05 T 638.29 519.31 Q 593.38 515.34 511.26 505.73 Q 534.35 496.66 549.2 481.58 T 561.18 455.21 Q 561.54 453.95 556.49 439.13 Q 547 427.79 543.61 415.11 Q 537.42 401.63 525.36 241.46 Q 644.92 251.05 680.92 253.98 Q 710.78 252.69 752.84 258.46 Q 756.37 261.81 784.06 269.1 Q 807.67 273.35 815.9 274.13 Q 828.51 273.32 857.61 262.92 Z  "></path></g></g><g class="font_component_wrapper"><g transform="
                                translate(69.666666666667,28)scale(0.033333333333333,-0.017265193370166)
                                translate(0,-1160)
                        "><path style="fill: #EF454A;" d=" M 256.6 -48.58 T 259.83 -46.29 Q 256.28 -40.02 275.47 -32.97 Q 410.83 39.12 478.83 128 T 572.86 319.04 T 599.25 570.77 Q 598.93 604.67 593.2 661.11 Q 592.1 710.3 569.34 726.88 Q 558.33 738.45 547.68 742.8 T 532.8 746.62 T 530.31 753.42 Q 531.44 760.94 544.8 766.26 T 581.27 772.51 Q 593.75 770.75 610.76 771.37 Q 637.47 763.95 668.4 739.91 T 696.27 698.42 Q 698.32 690.83 689.05 676.72 Q 687.92 666.24 683.3 657.91 T 680.18 635.87 Q 679.79 592.33 678.78 536.04 Q 674.56 381.46 640.14 273.59 T 517.58 91.14 T 278.15 -47.74 Q 268.86 -48.34 262.97 -47.73 Q 257.73 -47.22 259.17 -45.01 Z  M 371.83 289.23 T 353.03 308.12 T 337.37 359.6 Q 339.05 365.51 343.21 404.92 T 347.93 478.75 Q 347.84 572.28 339.42 615.31 Q 329.74 650.27 303.53 659.47 Q 293.96 662.89 290.28 665.73 T 285.43 673.2 Q 284.4 682.41 302.77 689.1 T 340.33 702.58 Q 353.47 699.24 362.26 698.41 Q 400.86 683.16 411.47 670.23 T 428.42 639.79 Q 425.62 633.58 423.02 621.77 T 420.4 608.48 Q 418.51 578.91 419.4 512.63 L 419.48 432.57 Q 417.58 431.22 423.87 388.91 Q 425.84 356.83 425.53 346.68 Q 425.52 324.35 414.17 307.26 T 382.45 290.87 Q 368.39 290.92 354.43 309.41 Z  "></path></g></g><g class="font_component_wrapper"><g transform="
                                translate(69.666666666667,53)scale(0.033333333333333,-0.017265193370166)
                                translate(0,-1160)
                        "><path style="fill: #EF454A;" d=" M 787.64 717.58 T 820.92 686.81 T 851.26 642.34 Q 853.45 637.68 844.08 631.64 Q 834.64 624.06 809.58 612.11 L 781.45 596.14 Q 738.95 575.26 671.23 539.21 T 553.96 484.52 Q 540.69 432.66 530.39 404.23 Q 483.51 284.92 410.94 165.53 T 193.11 -28.64 Q 184.09 -35.95 177.7 -34.5 Q 172.68 -33.32 171.34 -31.71 Q 172.66 -26.66 185.88 -14.02 Q 281.37 57.28 345.29 161.51 T 440.08 366.35 T 471.2 505.39 Q 472.54 535.2 453.69 553.56 T 407.35 580.89 Q 400.02 579.64 402.76 585.23 Q 402.88 591.48 419.02 597.18 T 460.54 600.97 Q 489.44 601.18 515.93 589.95 T 557.2 561.53 T 573.76 530.25 Q 574.25 527.38 571.78 520.03 Q 659.61 577.43 705.08 648.12 Q 719.52 666.24 720.52 678.31 Q 718.83 695.26 686.03 694.9 Q 663.68 694.11 586.24 680.72 T 456.9 656.72 Q 418.89 644.22 365.18 630.19 Q 319.11 617.04 297.4 610.7 T 252.05 604.53 Q 228.66 604.77 198.79 623.74 T 157.07 675.64 Q 150.71 684.65 153.57 692.97 Q 151.38 705.47 157.18 704.76 Q 162.76 704.73 173.79 700.25 T 188.96 691.07 Q 215.07 683.23 250.07 684.28 Q 286.87 683.2 314.07 688.44 Q 366.29 693.81 495.35 711.02 T 657.34 739.18 Q 663.85 740.16 689.32 748.64 T 731.43 756.38 Q 736.74 758.29 751.03 747.09 Q 787.61 719.28 820.04 687.48 Z  "></path></g></g><g class="font_component_wrapper"><g transform="
                                translate(69.666666666667,78)scale(0.033333333333333,-0.017265193370166)
                                translate(0,-1160)
                        "><path style="fill: #EF454A;" d=" M 760.82 452.78 T 791.18 443.16 T 846.73 420.57 T 872.52 380.12 Q 871.92 369.44 860.17 359 T 828.01 349.47 Q 814.63 350.78 780.49 361.9 Q 730.11 377.09 659.24 376.66 Q 577.54 376.91 482.34 360.43 V 318.07 V 215.37 Q 480.49 175.11 486.15 159.42 T 510.5 134.84 T 565.43 128.39 Q 619.27 129.56 677.77 140.37 Q 712.18 146.65 720.73 149.95 Q 755.75 149.92 776.23 138.47 T 801.93 103.4 Q 800.61 76.77 750.79 66.46 T 621.18 52.79 Q 543.07 52.32 501.74 63.11 T 437.93 105.43 T 415.05 207.31 Q 414.1 234.54 415.7 316.45 L 417.73 348.08 Q 348.69 334.42 280.79 310.5 L 257.72 302.58 Q 231.15 295.36 215.97 290.99 T 175.04 285.19 Q 138.78 282.73 113.46 305.29 T 76.76 362.93 Q 74.53 370.7 72.61 376.07 Q 74.87 379.62 78.78 382.04 Q 82.48 381.87 102.41 374.71 Q 135.56 362.84 175.17 362.97 Q 208.75 362.48 249.39 366.93 L 417.55 394.21 Q 416.55 416.86 417.62 449.41 Q 417.68 485.38 414.2 505.83 Q 413.28 530.53 405.64 545.5 T 390.49 562.53 L 355.98 557.36 Q 314.95 547.72 280.18 547.01 Q 206.1 547.36 179.16 597.82 Q 176.32 607.2 176.16 616.17 Q 176.21 625.71 182.73 623.92 Q 184.25 622.54 191.72 618.45 T 211.71 613.15 Q 225.51 608.9 257.8 609.05 Q 324.15 608.02 422.57 621.49 T 593.96 659.61 Q 608.8 660.8 626.91 671.67 Q 627.43 674.3 636.2 678.21 T 656.21 683.88 Q 669.22 686.54 693.23 679.54 T 737.73 664.52 T 758.7 635.25 Q 755.26 620.22 736.67 615.33 T 662.8 600.86 Q 574.52 592.26 463.22 577.55 Q 483.09 566.81 495.88 550.11 Q 505.64 543.08 506.1 536.21 Q 503.42 531.04 497.27 518.14 T 488.63 484.86 Q 484.8 452.79 483.62 406.65 Q 579.78 418.13 614.61 423.64 Q 648.67 425.34 701.45 441.34 Q 730.5 452.16 741.36 451.32 Q 761.39 450.73 793.62 442.37 Z  "></path></g></g><g class="font_component_wrapper"><g transform="
                                translate(36.333333333333,3)scale(0.033333333333333,-0.017265193370166)
                                translate(0,-1160)
                        "><path style="fill: #EF454A;" d=" M 307.35 635.77 Q 309.72 641.94 314.26 649.18 T 324.45 664.72 T 332.38 666.39 Q 339.63 669.77 359.49 653.92 T 390.48 617.51 T 406.46 592.27 Q 405.53 575.73 383.01 577.09 H 270.52 V 480.12 Q 335.14 448.69 363.47 409.84 T 395.49 341.61 Q 392.79 320.71 385.32 311.76 T 360.54 297.98 Q 345.84 297.45 330.86 311.83 Q 323.78 341.54 309.75 383.25 T 270.32 458.29 V 183.07 Q 272.27 62.97 280.94 -51.02 Q 275.99 -62.37 252.12 -72.12 T 212.69 -80.24 Q 202.23 -83.86 192.55 -77.96 T 187.25 -61.21 Q 191.74 -3.34 192.72 50.1 T 198.47 197.33 V 368.78 Q 139.51 241.57 56.88 151.02 L 41.56 161.82 Q 92.25 243.83 128.46 352.52 T 183.39 577.04 H 145.1 Q 113.58 574.9 82.77 561.69 L 58.28 613.68 Q 95.31 608.45 154.08 603.56 H 198.1 V 642.48 Q 198.34 765.43 184.68 847.31 Q 247.05 829.29 271.03 820.41 T 297.46 799.98 Q 297.54 795.23 287.74 790.22 L 270.45 779.63 V 605.42 H 289.66 L 308.18 635.86 Z  M 833.87 457.7 Q 839.79 464.58 844.03 470.08 T 857.07 485.13 T 865.27 491.31 Q 871.84 491.91 890.56 472.4 T 929.92 438.99 T 949.74 409.85 Q 943.42 394 924.9 393.04 H 695.43 Q 735.25 301.26 806.98 221.38 T 959.92 104.91 L 957.21 94.93 Q 933.81 77.78 920.62 58.5 T 902.75 5.31 Q 828.05 61.25 771.51 162.59 T 677.98 381.61 V 189.08 Q 676.29 68.39 684.15 -45.55 Q 677.3 -54.67 657.24 -68.6 T 616.38 -78.3 Q 602.73 -78.35 597.4 -74.99 T 590.17 -59.65 Q 595.14 -6.85 597.27 43.46 T 601.13 167.61 V 295.99 Q 498.29 121.1 317.25 9.45 L 307.98 24.36 Q 389.76 95.51 454.28 191 T 561.24 393.74 H 502.36 Q 449.14 393.27 394.19 381.92 L 370.25 431.06 Q 422.91 428.78 500.37 423.75 H 600.56 V 604.68 H 485.05 Q 440.87 526.41 382.16 475.59 L 368.87 483.1 Q 395.63 530.22 413.78 581.61 Q 432.88 628.14 441.1 690 T 453.5 794.15 Q 565.58 766.26 565.63 753.08 Q 566.76 749.21 558.64 744.86 L 542.99 739.16 Q 520.86 682.14 499.65 634.4 H 598.2 V 640 Q 601.28 765.73 585.33 843.45 Q 651.18 826.18 675.04 815.35 T 699.2 798.86 Q 702.47 791.37 692.56 789.13 L 676.72 775.71 V 633.69 H 774.12 L 795.46 667.8 Q 803.59 671.34 808.57 682.6 T 816.01 693.16 T 826.09 701.67 Q 833.86 698.32 852.27 682.25 T 889.06 646.83 T 907.52 620.27 Q 906.15 607.29 884.05 604.41 H 674.4 V 424.22 H 812.68 L 833.45 455.82 Z  "></path></g></g><g class="font_component_wrapper"><g transform="
                                translate(36.333333333333,28)scale(0.033333333333333,-0.017265193370166)
                                translate(0,-1160)
                        "><path style="fill: #EF454A;" d=" M 815.41 653.78 Q 820 657.33 828.63 666.13 T 837.91 683.87 T 846.36 688.4 Q 854.24 688.09 875.76 669.8 T 919.22 632.46 T 942.29 607.13 Q 937.54 591.8 916.18 592.14 H 632.7 Q 660.43 196.15 839.57 58.97 Q 851.78 47.09 857.09 47.34 Q 863.19 47.61 870.82 61.89 Q 898.4 121.79 916.22 176.71 L 928.28 175.55 L 910.36 19.32 Q 938.72 -25.46 940.05 -42.44 Q 939.99 -53.13 931.72 -59.7 Q 920.61 -73.48 899.79 -74.71 Q 875.89 -72.17 846.32 -60.84 T 796.3 -24.34 Q 684.33 72.53 629.61 223.57 T 555.64 592.27 H 234.56 Q 162.59 590.05 84.68 576.82 L 56.59 628.23 Q 110.72 622.68 188.47 620.09 H 553.02 Q 542.11 714.31 544.16 838.77 Q 650.77 827.25 650.55 817.98 Q 651.65 811.95 644.9 805.4 L 626.56 795.56 V 753.93 Q 627.92 677.47 631.05 619.48 H 793.51 L 817.58 653.02 Z  M 691.15 809.24 Q 750 806.67 785.29 794.3 T 836.89 758.2 T 855.58 716.91 Q 855.04 699.32 846.27 691.95 T 820.21 681.04 Q 808.25 680.77 795.39 686.02 Q 781.79 714.7 748.29 747.19 T 683.83 803.58 L 691.82 809.91 Z  M 432.15 449.7 Q 435.18 452.08 443.37 460.46 T 453.76 476.82 T 461.37 481.16 Q 467.51 479.17 487.9 464.88 T 529.17 427.58 T 546.79 401.55 Q 543.54 386.34 521.99 388.15 H 356.94 V 96.63 Q 430.19 113.67 528.55 141.68 L 569.22 152.09 L 571.27 133.58 Q 367.85 46.62 148.97 -36.27 Q 147.34 -42.85 141.12 -48.22 T 129.02 -57.52 L 76.23 32.56 Q 146.38 45.05 278.83 79.14 V 385.26 H 220.22 Q 171.06 387.44 118.57 371.79 L 95.72 423.06 Q 147.35 417.71 228.64 417.89 H 410.59 L 432.83 446.9 Z  "></path></g></g><g class="font_component_wrapper"><g transform="
                                translate(36.333333333333,53)scale(0.033333333333333,-0.017265193370166)
                                translate(0,-1160)
                        "><path style="fill: #EF454A;" d=" M 461.51 673.16 T 329.12 571.49 T 60.75 412.02 L 54.22 425.33 Q 132.28 472.14 215.08 543.93 T 362.66 698.05 T 447.76 844.32 L 582.93 813.87 Q 580.03 793.19 543.13 793.98 Q 605.79 707.64 714.77 633.6 T 948.7 523.56 L 946.2 505.66 Q 920 500.53 902.43 479.04 T 878.7 430.71 Q 764.98 485.13 666.25 579.82 T 526.68 781.42 Q 462.9 676.18 331.43 573.18 Z  M 415.37 466.42 Q 350.78 464.28 281.46 453.97 L 253.13 504.67 Q 309.11 496.16 388.15 496.18 H 590.56 L 613.07 528.96 Q 618.52 535.49 623.35 540.67 T 633.75 554.02 T 646.68 560.13 Q 651.42 563.28 672.03 546.76 T 714.48 509.81 T 737.04 482.89 Q 732.68 468.81 710.38 466.15 H 416.31 Z  M 459.32 46.58 T 716.06 65.92 Q 663.21 143.06 595.48 210.01 L 606.85 217.95 Q 694.35 179.08 748.9 136.5 T 831.35 48.45 T 856.25 -26.86 Q 857.97 -51.35 845.07 -65.6 T 816.3 -79.2 Q 803.57 -80.45 781.94 -65.04 Q 766.58 -15.63 728.14 41.54 Q 537.57 3.37 197.47 -48.59 Q 189.43 -65.34 173.18 -72.03 L 125.92 31.08 Q 199.14 32.95 281.6 37.08 Q 307.65 92.54 329.63 158.63 T 371.39 289.58 H 271.4 Q 199.15 287.73 120.85 274.96 L 93.98 325.1 Q 149.91 319.62 227.91 317.52 H 751.56 L 776.53 350.91 Q 779.81 356.04 788.25 364.99 T 800.79 380.09 T 808.01 385.25 Q 815.09 385.14 839.81 366.07 T 884.72 332.89 T 902.14 304.03 Q 900.52 287.64 877.39 289.35 H 474.45 Q 442.33 223.13 402.79 158.33 T 323.19 41.07 Q 460.93 45.89 717.42 65.29 Z  "></path></g></g><g class="font_component_wrapper"><g transform="
                                translate(36.333333333333,78)scale(0.033333333333333,-0.017265193370166)
                                translate(0,-1160)
                        "><path style="fill: #EF454A;" d=" M 286.04 185.22 Q 290.29 61.74 294.7 -47.98 Q 286.27 -61.74 270.32 -70.88 T 223.4 -82.16 Q 215.36 -79.65 207.04 -75.35 T 200.76 -62.01 Q 203.85 -2.18 206.39 53.78 T 213.49 197.24 V 352.3 Q 136.31 280.91 51.09 232.28 L 40.67 243.28 Q 126.11 313.17 200.86 416.02 T 315.48 614.01 H 230.02 Q 161.21 615.53 81.92 603.35 L 54.81 655.44 Q 100.02 649.29 160.51 645.5 H 211.4 Q 209.73 761.84 197.86 839.03 Q 310.46 811.17 310.51 799.87 Q 309.19 791.41 300.95 786.79 L 282.19 775.28 V 646.23 H 319.46 L 341.77 669.82 Q 347.12 673.24 355.12 680.38 T 371.91 690.37 Q 381.57 691.41 411.3 657.34 T 441.84 613.53 Q 430.29 601.25 398.84 600.29 Q 361.15 522.23 291.63 438.95 Q 363.72 420.38 396.54 385.2 T 430.62 322.22 Q 429.99 306.24 422.76 295.86 T 398.48 286.83 Q 383.56 285.92 370.25 292.5 Q 363.33 321.85 340.16 352.81 T 289.81 413.36 V 184.6 Z  M 810.66 524.37 Q 813.46 528.73 821.62 536.12 T 828.28 549.56 T 836.51 556.02 Q 844.85 556.01 866.12 540.16 T 905.87 501.2 T 925.66 474.87 Q 922.33 459.78 900.86 459.17 H 683.55 V -5.5 H 811.79 L 831.38 29.81 Q 836.48 31.6 843.15 42.23 T 852.99 58.01 T 862.89 63.06 Q 868.06 61.07 890.09 46.88 T 932.72 7.08 T 951.78 -17.34 Q 945.98 -34.44 924.12 -35.3 H 519.76 Q 448.13 -37.4 372.24 -48.6 L 346.54 1.96 Q 401.93 -4.69 479.65 -4.2 H 607.94 V 458.24 H 544.08 Q 488.41 458.81 433.77 444.1 L 405.78 497.34 Q 463.97 493.5 538.02 488.13 H 606.57 V 634.84 Q 604.15 760.7 592.63 837.13 Q 657.64 823.58 684.67 813.9 T 710.24 794.38 Q 711.93 788.79 702.03 784.19 L 686.46 771.46 V 488.04 H 786 L 810.99 521.98 Z  "></path></g></g><g class="font_component_wrapper"><g transform="
                                translate(3,3)scale(0.033333333333333,-0.034530386740331)
                                translate(0,-1160)
                        "><path style="fill: #EF454A;" d=" M 176.65 62.22 T 132.45 -7.26 Q 140.17 -15.59 139.14 -25.24 Q 141.94 -37.67 132.78 -43.14 L 61.26 30.64 Q 92.84 59.53 136.23 104.43 T 211.45 186.44 L 227.24 256.89 L 276.4 241.47 L 233.46 178.83 Q 253.15 148.91 271.51 123.94 Q 408.06 210.96 528.85 334.11 T 726.18 577.65 H 282.06 Q 212.36 576.47 132.61 563.91 L 104.39 618.25 Q 159.47 612.33 237.46 609.79 H 456.83 V 624.26 Q 456.81 747.5 444.24 826.66 Q 509.51 811.92 535.96 800.66 T 563.26 785.21 Q 560.37 779.9 554.77 774.04 L 536.13 764.91 V 610.59 H 728.82 L 753.23 634.01 Q 756.09 636.13 767.39 646.37 T 785.02 656.51 Q 790.75 658.87 809.38 639.64 T 845.27 603.3 T 861.81 579.9 Q 857.66 570.33 849.58 568.28 T 819.69 565.51 Q 734.19 433 593.63 308.92 T 285.7 105.09 Q 336.78 58.21 414.07 42.59 T 623.29 24.68 Q 864.2 24.81 943.74 30.37 V 16.95 Q 924.09 9.87 911.02 -6.67 T 898.51 -51.04 H 617.24 Q 507.14 -48.39 433.73 -34.83 T 312.11 32.51 T 224.04 164.25 Q 174.37 63.57 134.18 -7.34 Z  "></path></g></g><g class="font_component_wrapper"><g transform="
                                translate(3,53)scale(0.033333333333333,-0.034530386740331)
                                translate(0,-1160)
                        "><path style="fill: #EF454A;" d=" M 371.19 482.48 Q 378.52 489.18 381.88 499.79 T 394.4 512.09 T 403.26 517.14 Q 408.08 518.09 430.72 501.1 T 467.98 463.19 T 486.65 438.85 Q 487.78 429.41 478.62 423.23 T 464.77 421.84 H 193.1 V 146.12 H 353.1 L 374.89 181.76 Q 380.4 187.08 387.37 197.18 T 397.71 212.29 T 407.15 217.97 Q 413.32 216.67 434.96 199.59 T 476.03 159.07 T 496.16 133.5 Q 493.04 116.62 471.83 116.65 H 193.15 V 82.22 L 194.28 52.24 Q 193.64 41.35 196.84 19.02 Q 191.11 7.99 173.88 -2.15 T 128.27 -14.04 Q 119.01 -14.02 112.76 -6.22 T 106.18 6.24 Q 109.95 64.97 114.16 122.44 T 116.5 268.17 V 549.22 Q 119.3 675.35 103.16 753.98 L 215.73 706.86 Q 330.11 762.83 418.94 820.44 Q 486.5 755.01 486.18 743.55 Q 485.2 737.06 474.74 738.61 L 456.95 741.38 Q 402.77 718.3 329.51 698.01 T 193.84 670.33 V 449.99 H 350.37 L 374.9 482.82 Z  M 604.14 186.61 Q 607.71 63.41 612.11 -47.65 Q 606.11 -59.25 587.33 -68.03 T 542.91 -80.81 Q 534.62 -81.4 525.01 -74.16 T 518.82 -59.86 Q 524.85 1 525.28 56 T 528.59 199.58 V 577.33 Q 531.84 705.84 517.33 784.78 L 619.42 732.45 H 810.89 L 829.67 755.43 Q 830.9 758.65 839.9 767.58 T 850.95 778.27 Q 859.35 779.6 878.67 766.24 T 921.8 732.26 T 940.47 710.76 Q 926.99 693.93 897.9 690.19 V 156.2 Q 899.79 120.52 890.91 102.79 T 860.85 68.54 T 787.11 51.13 Q 783.05 88.85 766.02 106.14 Q 742.46 126.21 686.82 135.35 V 153.12 Q 781.39 144.9 800.56 146.03 Q 812.06 145.93 815.35 150.28 T 821.9 165.77 V 701.04 H 607.37 V 185.04 Z  "></path></g></g><rect fill="none" stroke="#EF454A" stroke-width="3" x="1.5" y="1.5" width="103" height="103" rx="3" ry="3"></rect></svg>